<?xml version="1.0" standalone="no"?>
<!DOCTYPE svg PUBLIC "-//W3C//DTD SVG 20010904//EN"
 "http://www.w3.org/TR/2001/REC-SVG-20010904/DTD/svg10.dtd">
<svg version="1.0" xmlns="http://www.w3.org/2000/svg"
 width="201.000000pt" height="202.000000pt" viewBox="0 0 201.000000 202.000000"
 preserveAspectRatio="xMidYMid meet">

<g transform="translate(0.000000,202.000000) scale(0.100000,-0.100000)"
fill="#000000" stroke="none">
<path d="M349 2002 c-121 -32 -216 -104 -283 -215 -65 -108 -66 -127 -65 -789
0 -527 2 -600 17 -659 35 -132 124 -239 250 -301 l67 -33 675 0 675 0 70 34
c91 45 171 125 216 216 l34 70 0 680 0 680 -33 67 c-62 126 -169 215 -301 250
-59 15 -131 17 -661 17 -530 0 -602 -2 -661 -17z m784 -769 c-25 -71 -60 -172
-78 -225 -18 -53 -52 -147 -76 -207 l-42 -111 -35 0 c-28 0 -33 3 -27 18 8 20
87 241 139 387 19 55 47 132 61 170 14 39 28 76 30 83 2 6 20 12 39 12 l35 0
-46 -127z m-345 -20 c-3 -35 -9 -41 -93 -94 -49 -31 -93 -55 -96 -53 -3 2 -5
16 -4 31 1 23 16 39 91 90 49 35 93 63 97 63 5 0 7 -17 5 -37z m561 -22 c86
-58 104 -80 92 -112 -5 -14 -22 -6 -96 40 -84 53 -90 59 -93 94 -2 20 -1 37 3
37 3 0 45 -27 94 -59z m-652 -253 c89 -61 92 -64 93 -100 0 -21 -3 -38 -7 -38
-5 0 -48 31 -98 68 -80 60 -90 71 -91 100 0 17 2 32 5 32 3 0 47 -28 98 -62z
m747 25 c2 -26 -9 -37 -96 -101 l-98 -72 0 43 c0 42 1 42 92 104 51 34 94 60
96 58 2 -2 5 -17 6 -32z"/>
</g>
</svg>
