<?xml version="1.0" standalone="no"?>
<!DOCTYPE svg PUBLIC "-//W3C//DTD SVG 20010904//EN"
 "http://www.w3.org/TR/2001/REC-SVG-20010904/DTD/svg10.dtd">
<svg version="1.0" xmlns="http://www.w3.org/2000/svg"
 width="3487.000000pt" height="833.000000pt" viewBox="0 0 3487.000000 833.000000"
 preserveAspectRatio="xMidYMid meet">

<g transform="translate(0.000000,833.000000) scale(0.100000,-0.100000)"
fill="#000000" stroke="none">
<path d="M0 4170 l0 -4160 17430 0 17430 0 0 4160 0 4160 -17430 0 -17430 0 0
-4160z m6100 1727 c0 -2 -268 -748 -596 -1658 -328 -910 -608 -1687 -622
-1726 l-26 -73 -184 0 -184 0 4 23 c4 20 250 703 978 2722 131 363 243 672
249 688 l11 27 185 0 c102 0 185 -1 185 -3z m-1980 -711 l0 -203 -467 -300
c-545 -350 -550 -353 -560 -353 -5 0 -8 89 -8 197 l0 197 90 60 c265 176 929
606 937 606 4 0 8 -92 8 -204z m2703 -48 c205 -132 433 -282 507 -332 l135
-91 0 -201 0 -201 -40 25 c-66 42 -658 421 -837 537 l-168 108 0 204 c0 183 2
204 16 199 8 -3 183 -115 387 -248z m6400 70 c8 -24 189 -519 401 -1100 212
-582 386 -1060 386 -1063 0 -3 -93 -4 -207 -3 l-207 3 -168 435 c-134 346
-638 1741 -638 1764 0 3 94 6 209 6 l209 0 15 -42z m5317 -132 l0 -174 -332
-5 c-308 -4 -339 -6 -408 -26 -259 -77 -432 -246 -512 -501 -20 -65 -23 -95
-23 -225 1 -173 13 -233 76 -362 83 -169 225 -285 434 -354 66 -22 90 -23 415
-28 l345 -6 0 -175 0 -175 -335 1 c-306 0 -344 2 -443 22 -363 75 -661 300
-802 605 -196 424 -108 939 212 1248 124 120 248 195 428 258 164 59 261 69
623 70 l322 1 0 -174z m988 -933 l2 -1103 -195 0 -195 0 0 1105 0 1105 193 -2
192 -3 3 -1102z m1440 0 l2 -1103 -195 0 -195 0 0 465 0 465 -335 0 -335 0 0
180 0 180 335 0 335 0 0 453 c0 250 3 457 7 461 4 3 90 5 192 4 l186 -3 3
-1102z m5527 1096 c169 -23 350 -85 484 -164 110 -66 265 -212 336 -319 283
-426 232 -1016 -120 -1371 -170 -172 -383 -279 -645 -326 -52 -9 -176 -13
-405 -14 l-330 0 0 175 0 175 345 6 c325 5 349 6 415 28 203 67 350 190 435
366 61 127 74 188 74 355 0 169 -13 229 -77 360 -33 68 -58 102 -127 171 -70
71 -101 94 -180 133 -150 74 -234 86 -595 86 l-295 0 0 175 0 175 304 0 c168
0 339 -5 381 -11z m4238 -1 c235 -603 364 -949 558 -1497 132 -371 239 -681
239 -688 0 -11 -40 -13 -207 -11 l-207 3 -151 415 c-534 1460 -645 1767 -645
1778 0 18 406 17 413 0z m1687 0 c0 -18 -673 -1678 -680 -1678 -3 0 -49 115
-102 256 l-97 257 241 588 241 589 198 0 c153 0 199 -3 199 -12z m-20950 -173
l0 -175 -324 0 c-351 0 -447 -9 -558 -54 -206 -83 -345 -232 -419 -447 -16
-48 -23 -98 -28 -204 l-6 -140 -202 -3 -203 -2 0 107 c0 310 117 590 327 783
133 121 283 207 453 256 154 45 231 52 608 53 l352 1 0 -175z m3890 -580 l535
-749 3 752 2 752 190 0 190 0 0 -1100 0 -1100 -153 0 c-134 0 -156 2 -170 18
-8 9 -154 213 -324 452 -170 239 -515 724 -766 1078 -251 353 -457 645 -457
647 0 3 93 4 207 3 l207 -3 536 -750z m6900 581 l0 -173 -32 -7 c-58 -11 -211
-93 -266 -141 -104 -92 -191 -233 -227 -365 -23 -86 -31 -290 -15 -388 25
-161 102 -308 220 -422 72 -70 191 -140 273 -160 l47 -12 0 -176 0 -175 -57 7
c-70 8 -211 54 -295 97 -231 116 -415 316 -506 550 -66 170 -77 237 -76 449 0
168 3 194 27 283 51 190 153 370 284 501 138 138 303 231 496 281 140 37 127
52 127 -149z m491 138 c392 -122 668 -434 745 -841 22 -117 22 -321 0 -436
-67 -351 -294 -647 -610 -793 -83 -38 -234 -84 -277 -84 l-29 0 2 171 3 171
61 23 c140 53 224 111 308 213 118 146 169 302 168 517 0 98 -5 149 -21 210
-28 108 -88 226 -156 308 -68 80 -206 176 -301 207 l-64 22 0 174 0 175 48 -7
c26 -3 81 -17 123 -30z m7089 -139 l0 -175 -825 0 -825 0 0 175 0 175 825 0
825 0 0 -175z m-15264 -592 l184 -258 -3 -585 -2 -585 -190 0 -190 0 -3 855
c-1 644 1 851 9 843 7 -7 94 -128 195 -270z m-1891 9 c52 -138 95 -258 95
-264 0 -7 -107 -274 -238 -593 l-237 -580 -204 -3 c-191 -2 -203 -1 -197 15
22 63 680 1682 682 1680 2 -2 46 -116 99 -255z m16995 -327 l0 -175 -745 0
-745 0 0 168 c0 93 3 172 7 175 3 4 339 7 745 7 l738 0 0 -175z m-18213 -92
c-6 -160 -32 -263 -99 -401 -115 -236 -296 -407 -547 -517 -192 -85 -345 -105
-788 -105 l-303 0 0 180 0 180 349 0 c270 0 366 3 420 15 287 60 492 267 552
557 10 51 19 123 19 161 l0 67 201 0 202 0 -6 -137z m-4003 -170 c-1 -115 -2
-211 -3 -215 -1 -8 -974 -701 -1028 -732 -10 -6 -13 38 -13 206 l0 213 192
135 c105 74 340 239 522 367 182 128 331 233 331 233 0 0 0 -93 -1 -207z
m-4250 109 c61 -43 280 -197 486 -342 206 -144 385 -272 398 -283 21 -20 22
-25 22 -229 0 -114 -2 -208 -5 -208 -3 0 -26 15 -52 34 -295 208 -862 610
-913 648 l-65 47 0 206 c0 113 4 205 8 205 5 0 59 -35 121 -78z m26616 -782
l0 -180 -817 2 -818 3 -3 165 c-1 90 0 170 2 177 4 10 165 13 821 13 l815 0 0
-180z"/>
</g>
</svg>
