<?xml version="1.0" standalone="no"?>
<!DOCTYPE svg PUBLIC "-//W3C//DTD SVG 20010904//EN"
 "http://www.w3.org/TR/2001/REC-SVG-20010904/DTD/svg10.dtd">
<svg version="1.0" xmlns="http://www.w3.org/2000/svg"
 width="455.000000pt" height="80.000000pt" viewBox="0 0 455.000000 80.000000"
 preserveAspectRatio="xMidYMid meet">

<g transform="translate(0.000000,80.000000) scale(0.100000,-0.100000)"
fill="#ffffff" stroke="none">
<path d="M685 658 c-3 -7 -41 -112 -85 -234 -44 -122 -80 -224 -80 -228 0 -3
11 -6 24 -6 21 0 30 19 106 228 45 125 85 233 87 240 3 8 -4 12 -21 12 -15 0
-29 -6 -31 -12z"/>
<path d="M790 571 c0 -25 11 -36 80 -81 44 -29 80 -54 80 -56 0 -1 -36 -28
-80 -59 -69 -48 -80 -61 -80 -85 0 -29 0 -29 116 52 74 52 114 86 112 96 -2 8
-54 48 -115 88 l-113 73 0 -28z"/>
<path d="M340 521 c-58 -38 -106 -75 -108 -84 -2 -9 40 -44 112 -95 l116 -81
0 29 c0 26 -10 37 -66 78 -37 26 -73 52 -81 57 -11 8 4 22 67 62 65 43 80 57
80 78 0 14 -3 25 -7 25 -5 -1 -55 -32 -113 -69z"/>
<path d="M1359 570 c-66 -20 -109 -73 -109 -135 0 -20 5 -25 24 -25 19 0 25 7
30 34 4 21 19 45 37 60 25 22 41 26 90 26 56 0 59 1 59 25 0 24 -3 25 -52 24
-29 0 -65 -4 -79 -9z"/>
<path d="M1715 463 c68 -188 70 -193 99 -193 15 0 26 3 26 8 0 4 -24 72 -53
152 -52 141 -54 145 -84 148 l-31 3 43 -118z"/>
<path d="M1939 523 c140 -199 178 -248 199 -251 22 -3 22 -2 22 152 l0 156
-25 0 c-24 0 -24 -1 -27 -106 l-3 -106 -74 106 c-66 93 -78 106 -104 106 l-28
0 40 -57z"/>
<path d="M2324 560 c-56 -28 -88 -86 -81 -147 9 -83 62 -127 165 -139 l62 -7
0 27 c0 24 -3 26 -42 26 -91 0 -148 61 -127 134 15 51 42 69 109 74 55 4 60 6
60 28 0 22 -4 24 -52 24 -33 0 -69 -8 -94 -20z"/>
<path d="M2560 425 l0 -155 25 0 25 0 0 155 0 155 -25 0 -25 0 0 -155z"/>
<path d="M2760 515 l0 -65 -45 0 c-41 0 -45 -2 -45 -25 0 -23 4 -25 45 -25
l45 0 0 -65 c0 -63 1 -65 25 -65 l25 0 0 155 0 155 -25 0 c-24 0 -25 -2 -25
-65z"/>
<path d="M2955 566 c-69 -29 -106 -109 -85 -185 11 -44 69 -101 100 -101 30 0
25 33 -10 58 -57 42 -56 125 1 173 20 17 29 34 27 47 -3 19 -5 19 -33 8z"/>
<path d="M3040 559 c0 -11 16 -35 35 -53 30 -29 35 -40 35 -81 0 -41 -5 -52
-35 -81 -39 -37 -46 -64 -15 -64 33 0 96 71 103 116 12 76 -27 147 -95 173
-25 9 -28 8 -28 -10z"/>
<path d="M3490 555 c0 -24 3 -25 54 -25 94 0 145 -66 112 -143 -18 -44 -60
-67 -121 -67 -42 0 -45 -2 -45 -26 l0 -27 63 7 c73 9 113 30 144 76 69 102
-16 230 -154 230 -50 0 -53 -1 -53 -25z"/>
<path d="M3820 555 l0 -25 115 0 115 0 0 25 0 25 -115 0 -115 0 0 -25z"/>
<path d="M4120 573 c0 -4 24 -73 53 -153 50 -136 55 -145 82 -148 26 -3 27 -2
21 25 -4 15 -29 84 -54 153 -43 115 -49 125 -74 128 -16 2 -28 0 -28 -5z"/>
<path d="M4322 503 c-35 -86 -37 -98 -19 -131 12 -21 15 -18 47 60 18 46 39
98 47 116 13 32 13 32 -15 32 -26 0 -31 -7 -60 -77z"/>
<path d="M1637 489 c-38 -92 -87 -213 -87 -216 0 -1 11 -3 25 -3 22 0 30 10
56 66 16 37 32 77 35 89 7 27 -20 86 -29 64z"/>
<path d="M1900 387 l0 -117 25 0 c25 0 25 1 25 81 0 69 -3 85 -25 117 l-25 37
0 -118z"/>
<path d="M3820 430 c0 -19 7 -20 105 -20 98 0 105 1 105 20 0 19 -7 20 -105
20 -98 0 -105 -1 -105 -20z"/>
<path d="M1430 409 c0 -54 -53 -89 -135 -89 -42 0 -45 -2 -45 -26 l0 -27 67 7
c101 10 155 50 169 124 6 31 5 32 -25 32 -25 0 -31 -4 -31 -21z"/>
<path d="M3820 295 l0 -25 115 0 115 0 0 25 0 25 -115 0 -115 0 0 -25z"/>
</g>
</svg>
