<svg width="19" height="24" viewBox="0 0 19 24" fill="none" xmlns="http://www.w3.org/2000/svg">
<path d="M11.3374 12C11.3374 10.3933 10.3469 9.09091 9.12534 9.09091C7.90359 9.09091 6.91328 10.3933 6.91328 12C6.91328 13.6065 7.90359 14.9091 9.12534 14.9091C10.3469 14.9091 11.3374 13.6065 11.3374 12Z" fill="white"/>
<path fill-rule="evenodd" clip-rule="evenodd" d="M8.90416 4.84537C8.76996 4.84529 8.64561 4.84522 8.53002 4.84545V4.84327C7.2932 4.84509 7.05596 4.856 6.44377 4.89236C5.79675 4.93145 5.44544 5.07327 5.21152 5.19327C4.90183 5.35182 4.68063 5.54091 4.44836 5.84636C4.2161 6.15182 4.07204 6.44273 3.95176 6.85C3.86092 7.15764 3.75281 7.61945 3.72322 8.47036C3.69142 9.39036 3.68506 9.66527 3.68506 11.9958C3.68506 14.3264 3.69142 14.6027 3.72322 15.5227C3.75267 16.3736 3.86092 16.8355 3.95176 17.1427C4.07231 17.5502 4.2161 17.8404 4.44836 18.1458C4.68063 18.4513 4.90183 18.6404 5.21152 18.7985C5.44558 18.918 5.79675 19.0602 6.44377 19.0995C7.14333 19.1413 7.35334 19.1504 9.12534 19.1504C10.8972 19.1504 11.1073 19.1413 11.8069 19.0995C12.4539 19.0605 12.8054 18.9187 13.039 18.7987C13.3488 18.6405 13.5694 18.4515 13.8016 18.146C14.0339 17.8407 14.1779 17.5507 14.2982 17.1435C14.3891 16.8362 14.4972 16.3744 14.5268 15.5235C14.5586 14.6035 14.5655 14.3271 14.5655 11.998C14.5655 9.66891 14.5586 9.39254 14.5268 8.47254C14.4973 7.62164 14.3891 7.15982 14.2982 6.85255C14.1777 6.44527 14.0339 6.15436 13.8016 5.84891C13.5695 5.54345 13.3487 5.35436 13.039 5.19618C12.8051 5.07673 12.4539 4.93455 11.8069 4.89564C11.1072 4.85382 10.8972 4.84545 9.12534 4.84545C9.04875 4.84545 8.97508 4.84541 8.90416 4.84537ZM11.8713 7.34145C11.8713 6.76309 12.228 6.29455 12.6677 6.29455C13.1073 6.29455 13.464 6.76327 13.464 7.34145C13.464 7.91964 13.1073 8.38873 12.6677 8.38873C12.228 8.38873 11.8713 7.91964 11.8713 7.34145ZM5.71739 12C5.71739 9.52491 7.24329 7.51818 9.12534 7.51818C11.0074 7.51818 12.5327 9.52491 12.5327 12C12.5327 14.4751 11.0074 16.4809 9.12534 16.4809C7.24329 16.4809 5.71739 14.4751 5.71739 12Z" fill="white"/>
<path fill-rule="evenodd" clip-rule="evenodd" d="M0.497283 3.27616C0 4.55967 0 6.23987 0 9.60029V14.4004C0 17.7609 0 19.4411 0.497283 20.7246C0.934705 21.8536 1.63268 22.7715 2.49117 23.3467C3.46714 24.0007 4.74476 24.0007 7.3 24.0007H10.95C13.5052 24.0007 14.7829 24.0007 15.7588 23.3467C16.6173 22.7715 17.3153 21.8536 17.7527 20.7246C18.25 19.4411 18.25 17.7609 18.25 14.4004V9.60029C18.25 6.23987 18.25 4.55967 17.7527 3.27616C17.3153 2.14715 16.6173 1.22924 15.7588 0.653981C14.7829 0 13.5052 0 10.95 0H7.3C4.74476 0 3.46714 0 2.49117 0.653981C1.63268 1.22924 0.934705 2.14715 0.497283 3.27616ZM6.38902 3.32545C7.09688 3.28309 7.32306 3.27273 9.12534 3.27273H9.12326C10.9261 3.27273 11.1514 3.28309 11.8593 3.32545C12.5658 3.368 13.0483 3.51509 13.4713 3.73091C13.9082 3.95364 14.2773 4.25182 14.6465 4.73727C15.0156 5.22236 15.2424 5.70927 15.4124 6.28327C15.5755 6.83818 15.6875 7.47236 15.7207 8.40145C15.7525 9.33236 15.7608 9.62982 15.7608 12C15.7608 14.3702 15.7525 14.6669 15.7207 15.5978C15.6875 16.5265 15.5755 17.1609 15.4124 17.716C15.2424 18.2898 15.0156 18.7767 14.6465 19.2618C14.2778 19.7473 13.9081 20.0462 13.4717 20.2691C13.0495 20.4849 12.5667 20.632 11.8603 20.6745C11.1524 20.7169 10.9269 20.7273 9.12451 20.7273C7.32237 20.7273 7.09633 20.7169 6.38847 20.6745C5.68213 20.632 5.19977 20.4849 4.77754 20.2691C4.34135 20.0462 3.97111 19.7473 3.60239 19.2618C3.23339 18.7767 3.00666 18.2898 2.83702 17.7158C2.67305 17.1609 2.5612 16.5267 2.52871 15.5976C2.49664 14.6667 2.48862 14.3702 2.48862 12C2.48862 9.62982 2.49691 9.33218 2.52857 8.40127C2.56037 7.47255 2.67236 6.83818 2.83688 6.28309C3.00693 5.70927 3.23367 5.22236 3.6028 4.73727C3.97166 4.252 4.34191 3.95382 4.77837 3.73091C5.20032 3.51509 5.68255 3.368 6.38902 3.32545Z" fill="white"/>
</svg>
