<svg width="803" height="800" viewBox="0 0 803 800" fill="none" xmlns="http://www.w3.org/2000/svg">
<path fill-rule="evenodd" clip-rule="evenodd" d="M401.237 3.78044e-05C179.582 3.78044e-05 0 183.581 0 410.154C0 591.389 114.983 745.057 274.389 799.31C294.451 803.064 301.787 790.395 301.787 779.544C301.787 769.808 301.444 744.001 301.214 709.748C189.613 734.558 166.112 654.791 166.112 654.791C147.827 607.401 121.517 594.79 121.517 594.79C85.1195 569.335 124.269 569.863 124.269 569.863C164.564 572.796 185.773 612.093 185.773 612.093C221.54 674.85 279.662 656.668 302.533 646.228C306.144 619.717 316.519 601.653 327.982 591.389C238.908 581.066 145.248 545.875 145.248 388.687C145.248 343.936 160.896 307.278 186.518 278.656C182.391 268.274 168.634 226.573 190.53 170.15C190.53 170.15 224.119 159.064 300.813 212.144C333.545 203.019 367.312 198.365 401.237 198.303C435.342 198.479 469.676 202.995 501.718 212.144C578.297 159.064 611.944 170.091 611.944 170.091C633.84 226.573 620.083 268.274 615.956 278.597C641.635 307.337 657.226 343.936 657.226 388.687C657.226 546.226 563.337 580.948 473.975 591.037C488.363 603.705 501.202 628.75 501.202 667.05C501.202 721.831 500.686 766.054 500.686 779.544C500.686 790.512 507.966 803.24 528.314 799.251C608.125 772.02 677.544 719.794 726.746 649.965C775.948 580.135 802.44 496.24 802.474 410.154C802.413 301.322 760.108 196.972 684.863 120.055C609.618 43.1378 507.596 -0.0466421 401.237 3.78044e-05Z" fill="white"/>
</svg>
