<svg width="19" height="24" viewBox="0 0 19 24" fill="none" xmlns="http://www.w3.org/2000/svg">
<g clip-path="url(#clip0_18_447)">
<rect width="18.375" height="24" fill="#1E2022"/>
<path fill-rule="evenodd" clip-rule="evenodd" d="M0.500689 3.27606C0 4.55953 0 6.23969 0 9.6V14.4C0 17.7603 0 19.4405 0.500689 20.7239C0.941107 21.8529 1.64386 22.7708 2.50823 23.346C3.49089 24 4.77726 24 7.35 24H11.025C13.5977 24 14.8841 24 15.8668 23.346C16.7311 22.7708 17.4339 21.8529 17.8743 20.7239C18.375 19.4405 18.375 17.7603 18.375 14.4V9.6C18.375 6.23969 18.375 4.55953 17.8743 3.27606C17.4339 2.14708 16.7311 1.2292 15.8668 0.653961C14.8841 0 13.5977 0 11.025 0H7.35C4.77726 0 3.49089 0 2.50823 0.653961C1.64386 1.2292 0.941107 2.14708 0.500689 3.27606ZM3.26484 20H5.80453V9.31762H3.26484V20ZM3.0625 5.92111C3.0625 6.98185 3.72121 7.86044 4.53332 7.86044C5.34516 7.86044 6.00414 6.98185 6.00414 5.92111C6.00414 5.4116 5.84918 4.92296 5.57335 4.56268C5.29752 4.2024 4.92341 4 4.53332 4C4.14323 4 3.76913 4.2024 3.49329 4.56268C3.21746 4.92296 3.0625 5.4116 3.0625 5.92111ZM12.7755 20H15.3125V14.132C15.3125 11.2605 14.84 9.04976 12.2697 9.04976C11.034 9.04976 10.2058 9.93549 9.86672 10.7748H9.83117V9.31762H7.39539V20H9.93234V14.7106C9.93234 13.3177 10.1347 11.9712 11.4551 11.9712C12.7564 11.9712 12.7755 13.5606 12.7755 14.7999V20Z" fill="white"/>
</g>
<defs>
<clipPath id="clip0_18_447">
<rect width="18.375" height="24" fill="white"/>
</clipPath>
</defs>
</svg>
