<svg width="25" height="24" viewBox="0 0 25 24" fill="none" xmlns="http://www.w3.org/2000/svg">
<g clip-path="url(#clip0_18_445)">
<rect width="24.6" height="24" fill="#1E2022"/>
<path d="M12.3 0.296997C5.50425 0.296997 0 5.67 0 12.297C0 17.6 3.52395 22.097 8.41012 23.682C9.02512 23.795 9.25062 23.424 9.25062 23.105C9.25062 22.82 9.24038 22.065 9.23525 21.065C5.8138 21.789 5.0922 19.455 5.0922 19.455C4.53255 18.07 3.72382 17.7 3.72382 17.7C2.60965 16.956 3.80992 16.971 3.80992 16.971C5.04505 17.055 5.69387 18.207 5.69387 18.207C6.79062 20.042 8.5731 19.512 9.27625 19.205C9.38695 18.429 9.70368 17.9 10.0553 17.6C7.32363 17.3 4.4526 16.268 4.4526 11.67C4.4526 10.36 4.92922 9.29 5.71847 8.45C5.5801 8.147 5.16497 6.927 5.8261 5.274C5.8261 5.274 6.85622 4.952 9.2086 6.504C10.1926 6.237 11.2381 6.105 12.2836 6.099C13.3291 6.105 14.3746 6.237 15.3586 6.504C17.6956 4.952 18.7257 5.274 18.7257 5.274C19.3868 6.927 18.9717 8.147 18.8487 8.45C19.6328 9.29 20.1095 10.36 20.1095 11.67C20.1095 16.28 17.2343 17.295 14.4976 17.59C14.9281 17.95 15.3279 18.686 15.3279 19.81C15.3279 21.416 15.3125 22.706 15.3125 23.096C15.3125 23.411 15.5277 23.786 16.1581 23.666C21.0791 22.092 24.6 17.592 24.6 12.297C24.6 5.67 19.0927 0.296997 12.3 0.296997" fill="white"/>
</g>
<defs>
<clipPath id="clip0_18_445">
<rect width="24.6" height="24" fill="white"/>
</clipPath>
</defs>
</svg>
