<svg width="802" height="802" viewBox="0 0 802 802" fill="none" xmlns="http://www.w3.org/2000/svg">
<path d="M401 801C621.914 801 801 621.914 801 401C801 180.086 621.914 1 401 1C180.086 1 1 180.086 1 401C1 621.914 180.086 801 401 801Z" fill="white" stroke="white" stroke-width="0.00256"/>
<path d="M400.384 775.356C607.093 775.356 774.663 607.786 774.663 401.077C774.663 194.368 607.093 26.7978 400.384 26.7978C193.675 26.7978 26.1046 194.368 26.1046 401.077C26.1046 607.786 193.675 775.356 400.384 775.356Z" fill="white" stroke="white" stroke-width="0.00256"/>
<g opacity="0.79">
<path d="M510.64 317.908C520.625 317.908 528.718 309.815 528.718 299.83C528.718 289.846 520.625 281.753 510.64 281.753C500.656 281.753 492.563 289.846 492.563 299.83C492.563 309.815 500.656 317.908 510.64 317.908Z" fill="url(#paint0_linear_2_26)" stroke="white" stroke-width="0.00256"/>
<path d="M513.509 212.33H297.501C255.666 212.33 220.031 246.868 220.031 288.722V504.73C220.031 546.565 255.666 580.063 297.501 580.063H513.509C555.363 580.063 587.745 546.584 587.745 504.73V288.722C587.745 246.868 555.363 212.33 513.509 212.33ZM553.091 494.219C553.19 501.217 551.884 508.164 549.252 514.649C546.619 521.135 542.714 527.026 537.766 531.976C532.817 536.926 526.927 540.834 520.443 543.469C513.958 546.104 507.012 547.412 500.013 547.316H311.016C281.117 547.316 256.61 524.098 256.61 494.219V305.202C256.665 290.793 262.417 276.991 272.609 266.806C282.801 256.621 296.607 250.88 311.016 250.834H499.994C529.989 250.834 553.091 275.323 553.091 305.202V494.199V494.219Z" fill="url(#paint1_linear_2_26)" stroke="white" stroke-width="0.00256"/>
<path d="M403.888 290.224C382.774 290.224 362.135 296.485 344.579 308.215C327.024 319.945 313.341 336.617 305.261 356.124C297.181 375.63 295.067 397.095 299.186 417.803C303.305 438.511 313.473 457.532 328.402 472.462C343.332 487.392 362.353 497.559 383.061 501.678C403.769 505.797 425.234 503.683 444.74 495.603C464.247 487.523 480.919 473.84 492.649 456.285C504.379 438.73 510.64 418.09 510.64 396.976C510.64 368.664 499.393 341.511 479.373 321.491C459.353 301.471 432.2 290.224 403.888 290.224ZM403.888 466.457C390.146 466.457 376.712 462.382 365.286 454.747C353.86 447.113 344.955 436.261 339.696 423.565C334.437 410.87 333.061 396.899 335.742 383.421C338.423 369.943 345.04 357.563 354.757 347.846C364.474 338.129 376.855 331.512 390.333 328.831C403.811 326.15 417.781 327.526 430.477 332.785C443.173 338.043 454.024 346.949 461.659 358.375C469.293 369.801 473.368 383.234 473.368 396.976C473.363 415.402 466.041 433.072 453.012 446.101C439.983 459.13 422.314 466.452 403.888 466.457Z" fill="url(#paint2_linear_2_26)" stroke="white" stroke-width="0.00256"/>
</g>
<defs>
<linearGradient id="paint0_linear_2_26" x1="497.857" y1="312.614" x2="523.424" y2="287.047" gradientUnits="userSpaceOnUse">
<stop stop-color="#FBB03B"/>
<stop offset="0.19" stop-color="#EA6D48"/>
<stop offset="0.44" stop-color="#D4145A"/>
<stop offset="0.64" stop-color="#BB0B5B"/>
<stop offset="0.86" stop-color="#A6035D"/>
<stop offset="1" stop-color="#9E005D"/>
</linearGradient>
<linearGradient id="paint1_linear_2_26" x1="243.075" y1="558.078" x2="566.337" y2="234.816" gradientUnits="userSpaceOnUse">
<stop stop-color="#FBB03B"/>
<stop offset="0.19" stop-color="#EA6D48"/>
<stop offset="0.44" stop-color="#D4145A"/>
<stop offset="0.64" stop-color="#BB0B5B"/>
<stop offset="0.86" stop-color="#A6035D"/>
<stop offset="1" stop-color="#9E005D"/>
</linearGradient>
<linearGradient id="paint2_linear_2_26" x1="328.4" y1="472.464" x2="479.375" y2="321.489" gradientUnits="userSpaceOnUse">
<stop stop-color="#FBB03B"/>
<stop offset="0.19" stop-color="#EA6D48"/>
<stop offset="0.44" stop-color="#D4145A"/>
<stop offset="0.64" stop-color="#BB0B5B"/>
<stop offset="0.86" stop-color="#A6035D"/>
<stop offset="1" stop-color="#9E005D"/>
</linearGradient>
</defs>
</svg>
