<svg width="800" height="800" viewBox="0 0 800 800" fill="none" xmlns="http://www.w3.org/2000/svg">
<g clip-path="url(#clip0_2_13)">
<path d="M399.999 0C620.925 0 800 179.1 800 400.001C800 620.903 620.925 800 399.999 800C179.072 800 0 620.9 0 400.001C0 179.103 179.075 0 399.999 0Z" fill="white"/>
<path d="M225.4 549.6H300.3V299.949H225.4V549.6ZM517.201 291.301C480.85 291.301 448.325 304.576 425.252 333.877V299.128H350.077V549.602H425.252V414.152C425.252 385.527 451.478 357.601 484.327 357.601C517.176 357.601 525.277 385.527 525.277 413.452V549.578H600.178V407.877C600.175 309.45 553.576 291.301 517.201 291.301ZM262.5 275C283.2 275 300.001 258.199 300.001 237.499C300.001 216.799 283.2 200.001 262.5 200.001C241.8 200.001 224.999 216.802 224.999 237.502C224.999 258.202 241.8 275 262.5 275Z" fill="#0E76A8"/>
</g>
<defs>
<clipPath id="clip0_2_13">
<rect width="800" height="800" fill="white"/>
</clipPath>
</defs>
</svg>
